<?xml version="1.0" encoding="UTF-8" standalone="no"?>
<!DOCTYPE svg PUBLIC "-//W3C//DTD SVG 1.1//EN"
 "http://www.w3.org/Graphics/SVG/1.1/DTD/svg11.dtd">
<!-- Generated by graphviz version 2.40.1 (20161225.0304)
 -->
<!-- Title: dependencies Pages: 1 -->
<svg width="924pt" height="284pt"
 viewBox="0.00 0.00 924.00 284.00" xmlns="http://www.w3.org/2000/svg" xmlns:xlink="http://www.w3.org/1999/xlink">
<g id="graph0" class="graph" transform="scale(1 1) rotate(0) translate(4 280)">
<title>dependencies</title>
<polygon fill="#ffffff" stroke="transparent" points="-4,4 -4,-280 920,-280 920,4 -4,4"/>
<text text-anchor="start" x="437.0091" y="-42.4" font-family="sans-serif" font-weight="bold" font-size="14.00" fill="#000000">Legend</text>
<polygon fill="#ffffb3" stroke="transparent" points="224,-10 224,-30 244,-30 244,-10 224,-10"/>
<text text-anchor="start" x="247.629" y="-15.4" font-family="sans-serif" font-size="14.00" fill="#000000"> &#160;Declarations</text>
<polygon fill="#8dd3c7" stroke="transparent" points="337,-10 337,-30 357,-30 357,-10 337,-10"/>
<text text-anchor="start" x="360.7251" y="-15.4" font-family="sans-serif" font-size="14.00" fill="#000000"> &#160;Module</text>
<polygon fill="#80b1d3" stroke="transparent" points="423,-10 423,-30 443,-30 443,-10 423,-10"/>
<text text-anchor="start" x="446.7812" y="-15.4" font-family="sans-serif" font-size="14.00" fill="#000000"> &#160;Bootstrap</text>
<polygon fill="#fdb462" stroke="transparent" points="520,-10 520,-30 540,-30 540,-10 520,-10"/>
<text text-anchor="start" x="543.6732" y="-15.4" font-family="sans-serif" font-size="14.00" fill="#000000"> &#160;Providers</text>
<polygon fill="#fb8072" stroke="transparent" points="616,-10 616,-30 636,-30 636,-10 616,-10"/>
<text text-anchor="start" x="639.7258" y="-15.4" font-family="sans-serif" font-size="14.00" fill="#000000"> &#160;Exports</text>
<g id="clust1" class="cluster">
<title>cluster_AppModule</title>
<polygon fill="none" stroke="#000000" stroke-dasharray="1,5" points="8,-70 8,-268 908,-268 908,-70 8,-70"/>
</g>
<g id="clust3" class="cluster">
<title>cluster_AppModule_imports</title>
<polygon fill="none" stroke="#000000" points="16,-78 16,-130 900,-130 900,-78 16,-78"/>
</g>
<g id="clust5" class="cluster">
<title>cluster_AppModule_bootstrap</title>
<polygon fill="none" stroke="#000000" points="329,-208 329,-260 453,-260 453,-208 329,-208"/>
</g>
<!-- BrowserModule -->
<g id="node1" class="node">
<title>BrowserModule</title>
<polygon fill="#8dd3c7" stroke="#000000" points="892.4734,-122 889.4734,-126 868.4734,-126 865.4734,-122 785.5266,-122 785.5266,-86 892.4734,-86 892.4734,-122"/>
<text text-anchor="middle" x="839" y="-99.8" font-family="Times,serif" font-size="14.00" fill="#000000">BrowserModule</text>
</g>
<!-- AppModule -->
<g id="node7" class="node">
<title>AppModule</title>
<polygon fill="#8dd3c7" stroke="#000000" points="432.6571,-187 429.6571,-191 408.6571,-191 405.6571,-187 349.3429,-187 349.3429,-151 432.6571,-151 432.6571,-187"/>
<text text-anchor="middle" x="391" y="-164.8" font-family="Times,serif" font-size="14.00" fill="#000000">AppModule</text>
</g>
<!-- BrowserModule&#45;&gt;AppModule -->
<g id="edge1" class="edge">
<title>BrowserModule&#45;&gt;AppModule</title>
<path fill="none" stroke="#000000" d="M839,-122.2843C839,-143.3211 839,-175 839,-175 839,-175 442.7445,-175 442.7445,-175"/>
<polygon fill="#000000" stroke="#000000" points="442.7445,-171.5001 432.7445,-175 442.7444,-178.5001 442.7445,-171.5001"/>
</g>
<!-- AgmCoreModule.forRoot(args) -->
<g id="node2" class="node">
<title>AgmCoreModule.forRoot(args)</title>
<polygon fill="#8dd3c7" stroke="#000000" points="767.4487,-122 764.4487,-126 743.4487,-126 740.4487,-122 572.5513,-122 572.5513,-86 767.4487,-86 767.4487,-122"/>
<text text-anchor="middle" x="670" y="-99.8" font-family="Times,serif" font-size="14.00" fill="#000000">AgmCoreModule.forRoot(args)</text>
</g>
<!-- AgmCoreModule.forRoot(args)&#45;&gt;AppModule -->
<g id="edge2" class="edge">
<title>AgmCoreModule.forRoot(args)&#45;&gt;AppModule</title>
<path fill="none" stroke="#000000" d="M670,-122.0225C670,-139.3734 670,-163 670,-163 670,-163 442.7691,-163 442.7691,-163"/>
<polygon fill="#000000" stroke="#000000" points="442.7692,-159.5001 432.7691,-163 442.7691,-166.5001 442.7692,-159.5001"/>
</g>
<!-- RouterModule.forRoot(args) -->
<g id="node3" class="node">
<title>RouterModule.forRoot(args)</title>
<polygon fill="#8dd3c7" stroke="#000000" points="554.8419,-122 551.8419,-126 530.8419,-126 527.8419,-122 377.1581,-122 377.1581,-86 554.8419,-86 554.8419,-122"/>
<text text-anchor="middle" x="466" y="-99.8" font-family="Times,serif" font-size="14.00" fill="#000000">RouterModule.forRoot(args)</text>
</g>
<!-- RouterModule.forRoot(args)&#45;&gt;AppModule -->
<g id="edge3" class="edge">
<title>RouterModule.forRoot(args)&#45;&gt;AppModule</title>
<path fill="none" stroke="#000000" d="M405.0787,-122.1061C405.0787,-122.1061 405.0787,-140.991 405.0787,-140.991"/>
<polygon fill="#000000" stroke="#000000" points="401.5788,-140.9909 405.0787,-150.991 408.5788,-140.991 401.5788,-140.9909"/>
</g>
<!-- HttpModule -->
<g id="node4" class="node">
<title>HttpModule</title>
<polygon fill="#8dd3c7" stroke="#000000" points="359.4387,-122 356.4387,-126 335.4387,-126 332.4387,-122 274.5613,-122 274.5613,-86 359.4387,-86 359.4387,-122"/>
<text text-anchor="middle" x="317" y="-99.8" font-family="Times,serif" font-size="14.00" fill="#000000">HttpModule</text>
</g>
<!-- HttpModule&#45;&gt;AppModule -->
<g id="edge4" class="edge">
<title>HttpModule&#45;&gt;AppModule</title>
<path fill="none" stroke="#000000" d="M354.1953,-122.1061C354.1953,-122.1061 354.1953,-140.991 354.1953,-140.991"/>
<polygon fill="#000000" stroke="#000000" points="350.6954,-140.9909 354.1953,-150.991 357.6954,-140.991 350.6954,-140.9909"/>
</g>
<!-- StarRatingModule -->
<g id="node5" class="node">
<title>StarRatingModule</title>
<polygon fill="#8dd3c7" stroke="#000000" points="256.9314,-122 253.9314,-126 232.9314,-126 229.9314,-122 137.0686,-122 137.0686,-86 256.9314,-86 256.9314,-122"/>
<text text-anchor="middle" x="197" y="-99.8" font-family="Times,serif" font-size="14.00" fill="#000000">StarRatingModule</text>
</g>
<!-- StarRatingModule&#45;&gt;AppModule -->
<g id="edge5" class="edge">
<title>StarRatingModule&#45;&gt;AppModule</title>
<path fill="none" stroke="#000000" d="M197,-122.0225C197,-139.3734 197,-163 197,-163 197,-163 338.9049,-163 338.9049,-163"/>
<polygon fill="#000000" stroke="#000000" points="338.9049,-166.5001 348.9049,-163 338.9049,-159.5001 338.9049,-166.5001"/>
</g>
<!-- FormsModule -->
<g id="node6" class="node">
<title>FormsModule</title>
<polygon fill="#8dd3c7" stroke="#000000" points="119.8288,-122 116.8288,-126 95.8288,-126 92.8288,-122 24.1712,-122 24.1712,-86 119.8288,-86 119.8288,-122"/>
<text text-anchor="middle" x="72" y="-99.8" font-family="Times,serif" font-size="14.00" fill="#000000">FormsModule</text>
</g>
<!-- FormsModule&#45;&gt;AppModule -->
<g id="edge6" class="edge">
<title>FormsModule&#45;&gt;AppModule</title>
<path fill="none" stroke="#000000" d="M72,-122.2843C72,-143.3211 72,-175 72,-175 72,-175 339.2963,-175 339.2963,-175"/>
<polygon fill="#000000" stroke="#000000" points="339.2964,-178.5001 349.2963,-175 339.2963,-171.5001 339.2964,-178.5001"/>
</g>
<!-- AppComponent  -->
<g id="node8" class="node">
<title>AppComponent </title>
<polygon fill="#80b1d3" stroke="#000000" points="445.439,-252 336.561,-252 336.561,-216 445.439,-216 445.439,-252"/>
<text text-anchor="middle" x="391" y="-229.8" font-family="Times,serif" font-size="14.00" fill="#000000">AppComponent </text>
</g>
<!-- AppModule&#45;&gt;AppComponent  -->
<g id="edge7" class="edge">
<title>AppModule&#45;&gt;AppComponent </title>
<path fill="none" stroke="#000000" stroke-dasharray="1,5" d="M391,-187.1061C391,-187.1061 391,-205.991 391,-205.991"/>
<polygon fill="#000000" stroke="#000000" points="387.5001,-205.9909 391,-215.991 394.5001,-205.991 387.5001,-205.9909"/>
</g>
</g>
</svg>
