<?xml version="1.0" encoding="UTF-8" standalone="no"?>
<!DOCTYPE svg PUBLIC "-//W3C//DTD SVG 1.1//EN"
 "http://www.w3.org/Graphics/SVG/1.1/DTD/svg11.dtd">
<!-- Generated by graphviz version 2.40.1 (20161225.0304)
 -->
<!-- Title: dependencies Pages: 1 -->
<svg width="1544pt" height="284pt"
 viewBox="0.00 0.00 1544.00 284.00" xmlns="http://www.w3.org/2000/svg" xmlns:xlink="http://www.w3.org/1999/xlink">
<g id="graph0" class="graph" transform="scale(1 1) rotate(0) translate(4 280)">
<title>dependencies</title>
<polygon fill="#ffffff" stroke="transparent" points="-4,4 -4,-280 1540,-280 1540,4 -4,4"/>
<text text-anchor="start" x="747.0091" y="-42.4" font-family="sans-serif" font-weight="bold" font-size="14.00" fill="#000000">Legend</text>
<polygon fill="#ffffb3" stroke="transparent" points="534,-10 534,-30 554,-30 554,-10 534,-10"/>
<text text-anchor="start" x="557.629" y="-15.4" font-family="sans-serif" font-size="14.00" fill="#000000"> &#160;Declarations</text>
<polygon fill="#8dd3c7" stroke="transparent" points="647,-10 647,-30 667,-30 667,-10 647,-10"/>
<text text-anchor="start" x="670.7251" y="-15.4" font-family="sans-serif" font-size="14.00" fill="#000000"> &#160;Module</text>
<polygon fill="#80b1d3" stroke="transparent" points="733,-10 733,-30 753,-30 753,-10 733,-10"/>
<text text-anchor="start" x="756.7812" y="-15.4" font-family="sans-serif" font-size="14.00" fill="#000000"> &#160;Bootstrap</text>
<polygon fill="#fdb462" stroke="transparent" points="830,-10 830,-30 850,-30 850,-10 830,-10"/>
<text text-anchor="start" x="853.6732" y="-15.4" font-family="sans-serif" font-size="14.00" fill="#000000"> &#160;Providers</text>
<polygon fill="#fb8072" stroke="transparent" points="926,-10 926,-30 946,-30 946,-10 926,-10"/>
<text text-anchor="start" x="949.7258" y="-15.4" font-family="sans-serif" font-size="14.00" fill="#000000"> &#160;Exports</text>
<g id="clust1" class="cluster">
<title>cluster_AppModule</title>
<polygon fill="none" stroke="#000000" stroke-dasharray="1,5" points="8,-70 8,-268 1528,-268 1528,-70 8,-70"/>
</g>
<g id="clust2" class="cluster">
<title>cluster_AppModule_declarations</title>
<polygon fill="none" stroke="#000000" points="1084,-78 1084,-130 1520,-130 1520,-78 1084,-78"/>
</g>
<g id="clust6" class="cluster">
<title>cluster_AppModule_imports</title>
<polygon fill="none" stroke="#000000" points="388,-78 388,-130 1076,-130 1076,-78 388,-78"/>
</g>
<g id="clust8" class="cluster">
<title>cluster_AppModule_bootstrap</title>
<polygon fill="none" stroke="#000000" points="705,-208 705,-260 829,-260 829,-208 705,-208"/>
</g>
<g id="clust9" class="cluster">
<title>cluster_AppModule_providers</title>
<polygon fill="none" stroke="#000000" points="16,-78 16,-130 380,-130 380,-78 16,-78"/>
</g>
<!-- AppComponent -->
<g id="node1" class="node">
<title>AppComponent</title>
<polygon fill="#ffffb3" stroke="#000000" points="1511.9399,-122 1406.0601,-122 1406.0601,-86 1511.9399,-86 1511.9399,-122"/>
<text text-anchor="middle" x="1459" y="-99.8" font-family="Times,serif" font-size="14.00" fill="#000000">AppComponent</text>
</g>
<!-- AppModule -->
<g id="node4" class="node">
<title>AppModule</title>
<polygon fill="#8dd3c7" stroke="#000000" points="808.6571,-187 805.6571,-191 784.6571,-191 781.6571,-187 725.3429,-187 725.3429,-151 808.6571,-151 808.6571,-187"/>
<text text-anchor="middle" x="767" y="-164.8" font-family="Times,serif" font-size="14.00" fill="#000000">AppModule</text>
</g>
<!-- AppComponent&#45;&gt;AppModule -->
<g id="edge1" class="edge">
<title>AppComponent&#45;&gt;AppModule</title>
<path fill="none" stroke="#000000" d="M1459,-122.0109C1459,-144.4852 1459,-180 1459,-180 1459,-180 818.7293,-180 818.7293,-180"/>
<polygon fill="#000000" stroke="#000000" points="818.7294,-176.5001 808.7293,-180 818.7293,-183.5001 818.7294,-176.5001"/>
</g>
<!-- ReviewComponent -->
<g id="node2" class="node">
<title>ReviewComponent</title>
<polygon fill="#ffffb3" stroke="#000000" points="1388.0954,-122 1263.9046,-122 1263.9046,-86 1388.0954,-86 1388.0954,-122"/>
<text text-anchor="middle" x="1326" y="-99.8" font-family="Times,serif" font-size="14.00" fill="#000000">ReviewComponent</text>
</g>
<!-- ReviewComponent&#45;&gt;AppModule -->
<g id="edge2" class="edge">
<title>ReviewComponent&#45;&gt;AppModule</title>
<path fill="none" stroke="#000000" d="M1326,-122.1289C1326,-142.5724 1326,-173 1326,-173 1326,-173 819.0159,-173 819.0159,-173"/>
<polygon fill="#000000" stroke="#000000" points="819.0159,-169.5001 809.0159,-173 819.0158,-176.5001 819.0159,-169.5001"/>
</g>
<!-- ReviewFormComponent -->
<g id="node3" class="node">
<title>ReviewFormComponent</title>
<polygon fill="#ffffb3" stroke="#000000" points="1246.4298,-122 1091.5702,-122 1091.5702,-86 1246.4298,-86 1246.4298,-122"/>
<text text-anchor="middle" x="1169" y="-99.8" font-family="Times,serif" font-size="14.00" fill="#000000">ReviewFormComponent</text>
</g>
<!-- ReviewFormComponent&#45;&gt;AppModule -->
<g id="edge3" class="edge">
<title>ReviewFormComponent&#45;&gt;AppModule</title>
<path fill="none" stroke="#000000" d="M1169,-122.2667C1169,-140.5552 1169,-166 1169,-166 1169,-166 818.8834,-166 818.8834,-166"/>
<polygon fill="#000000" stroke="#000000" points="818.8834,-162.5001 808.8834,-166 818.8834,-169.5001 818.8834,-162.5001"/>
</g>
<!-- AppComponent  -->
<g id="node10" class="node">
<title>AppComponent </title>
<polygon fill="#80b1d3" stroke="#000000" points="821.439,-252 712.561,-252 712.561,-216 821.439,-216 821.439,-252"/>
<text text-anchor="middle" x="767" y="-229.8" font-family="Times,serif" font-size="14.00" fill="#000000">AppComponent </text>
</g>
<!-- AppModule&#45;&gt;AppComponent  -->
<g id="edge9" class="edge">
<title>AppModule&#45;&gt;AppComponent </title>
<path fill="none" stroke="#000000" stroke-dasharray="1,5" d="M767,-187.1061C767,-187.1061 767,-205.991 767,-205.991"/>
<polygon fill="#000000" stroke="#000000" points="763.5001,-205.9909 767,-215.991 770.5001,-205.991 763.5001,-205.9909"/>
</g>
<!-- BrowserModule -->
<g id="node5" class="node">
<title>BrowserModule</title>
<polygon fill="#8dd3c7" stroke="#000000" points="1068.4734,-122 1065.4734,-126 1044.4734,-126 1041.4734,-122 961.5266,-122 961.5266,-86 1068.4734,-86 1068.4734,-122"/>
<text text-anchor="middle" x="1015" y="-99.8" font-family="Times,serif" font-size="14.00" fill="#000000">BrowserModule</text>
</g>
<!-- BrowserModule&#45;&gt;AppModule -->
<g id="edge4" class="edge">
<title>BrowserModule&#45;&gt;AppModule</title>
<path fill="none" stroke="#000000" d="M1015,-122.0091C1015,-138.0494 1015,-159 1015,-159 1015,-159 818.7894,-159 818.7894,-159"/>
<polygon fill="#000000" stroke="#000000" points="818.7894,-155.5001 808.7894,-159 818.7893,-162.5001 818.7894,-155.5001"/>
</g>
<!-- AgmCoreModule.forRoot(args) -->
<g id="node6" class="node">
<title>AgmCoreModule.forRoot(args)</title>
<polygon fill="#8dd3c7" stroke="#000000" points="943.4487,-122 940.4487,-126 919.4487,-126 916.4487,-122 748.5513,-122 748.5513,-86 943.4487,-86 943.4487,-122"/>
<text text-anchor="middle" x="846" y="-99.8" font-family="Times,serif" font-size="14.00" fill="#000000">AgmCoreModule.forRoot(args)</text>
</g>
<!-- AgmCoreModule.forRoot(args)&#45;&gt;AppModule -->
<g id="edge5" class="edge">
<title>AgmCoreModule.forRoot(args)&#45;&gt;AppModule</title>
<path fill="none" stroke="#000000" d="M778.8021,-122.1061C778.8021,-122.1061 778.8021,-140.991 778.8021,-140.991"/>
<polygon fill="#000000" stroke="#000000" points="775.3021,-140.9909 778.8021,-150.991 782.3021,-140.991 775.3021,-140.9909"/>
</g>
<!-- HttpModule -->
<g id="node7" class="node">
<title>HttpModule</title>
<polygon fill="#8dd3c7" stroke="#000000" points="731.4387,-122 728.4387,-126 707.4387,-126 704.4387,-122 646.5613,-122 646.5613,-86 731.4387,-86 731.4387,-122"/>
<text text-anchor="middle" x="689" y="-99.8" font-family="Times,serif" font-size="14.00" fill="#000000">HttpModule</text>
</g>
<!-- HttpModule&#45;&gt;AppModule -->
<g id="edge6" class="edge">
<title>HttpModule&#45;&gt;AppModule</title>
<path fill="none" stroke="#000000" d="M718.8512,-122.2479C718.8512,-145.0179 718.8512,-181 718.8512,-181 718.8512,-181 719.4806,-181 719.4806,-181"/>
<polygon fill="#000000" stroke="#000000" points="715.1458,-184.5002 725.1458,-181 715.1457,-177.5002 715.1458,-184.5002"/>
</g>
<!-- StarRatingModule -->
<g id="node8" class="node">
<title>StarRatingModule</title>
<polygon fill="#8dd3c7" stroke="#000000" points="628.9314,-122 625.9314,-126 604.9314,-126 601.9314,-122 509.0686,-122 509.0686,-86 628.9314,-86 628.9314,-122"/>
<text text-anchor="middle" x="569" y="-99.8" font-family="Times,serif" font-size="14.00" fill="#000000">StarRatingModule</text>
</g>
<!-- StarRatingModule&#45;&gt;AppModule -->
<g id="edge7" class="edge">
<title>StarRatingModule&#45;&gt;AppModule</title>
<path fill="none" stroke="#000000" d="M569,-122.2396C569,-137.5706 569,-157 569,-157 569,-157 715.0093,-157 715.0093,-157"/>
<polygon fill="#000000" stroke="#000000" points="715.0093,-160.5001 725.0093,-157 715.0093,-153.5001 715.0093,-160.5001"/>
</g>
<!-- FormsModule -->
<g id="node9" class="node">
<title>FormsModule</title>
<polygon fill="#8dd3c7" stroke="#000000" points="491.8288,-122 488.8288,-126 467.8288,-126 464.8288,-122 396.1712,-122 396.1712,-86 491.8288,-86 491.8288,-122"/>
<text text-anchor="middle" x="444" y="-99.8" font-family="Times,serif" font-size="14.00" fill="#000000">FormsModule</text>
</g>
<!-- FormsModule&#45;&gt;AppModule -->
<g id="edge8" class="edge">
<title>FormsModule&#45;&gt;AppModule</title>
<path fill="none" stroke="#000000" d="M444,-122.0225C444,-139.3734 444,-163 444,-163 444,-163 715.1045,-163 715.1045,-163"/>
<polygon fill="#000000" stroke="#000000" points="715.1046,-166.5001 725.1045,-163 715.1045,-159.5001 715.1046,-166.5001"/>
</g>
<!-- NearbyLoaderService -->
<g id="node11" class="node">
<title>NearbyLoaderService</title>
<ellipse fill="#fdb462" stroke="#000000" cx="276" cy="-104" rx="95.5067" ry="18"/>
<text text-anchor="middle" x="276" y="-99.8" font-family="Times,serif" font-size="14.00" fill="#000000">NearbyLoaderService</text>
</g>
<!-- NearbyLoaderService&#45;&gt;AppModule -->
<g id="edge10" class="edge">
<title>NearbyLoaderService&#45;&gt;AppModule</title>
<path fill="none" stroke="#000000" d="M276,-122.1061C276,-141.3391 276,-169 276,-169 276,-169 715.1376,-169 715.1376,-169"/>
<polygon fill="#000000" stroke="#000000" points="715.1377,-172.5001 725.1376,-169 715.1376,-165.5001 715.1377,-172.5001"/>
</g>
<!-- ReviewService -->
<g id="node12" class="node">
<title>ReviewService</title>
<ellipse fill="#fdb462" stroke="#000000" cx="93" cy="-104" rx="69.4781" ry="18"/>
<text text-anchor="middle" x="93" y="-99.8" font-family="Times,serif" font-size="14.00" fill="#000000">ReviewService</text>
</g>
<!-- ReviewService&#45;&gt;AppModule -->
<g id="edge11" class="edge">
<title>ReviewService&#45;&gt;AppModule</title>
<path fill="none" stroke="#000000" d="M93,-122.2843C93,-143.3211 93,-175 93,-175 93,-175 715.0929,-175 715.0929,-175"/>
<polygon fill="#000000" stroke="#000000" points="715.093,-178.5001 725.0929,-175 715.0929,-171.5001 715.093,-178.5001"/>
</g>
</g>
</svg>
